<svg width="142" height="98" viewBox="0 0 142 98" fill="none" xmlns="http://www.w3.org/2000/svg">
<g clip-path="url(#clip0_67_301)">
<path d="M119.109 -1.92844C119.109 -2.99543 119.679 -3.98186 120.604 -4.51607L131.413 -10.7527C132.338 -11.2869 133.478 -11.2869 134.402 -10.7527L145.212 -4.51465C146.136 -3.98045 146.706 -2.99543 146.706 -1.92702V10.5476C146.706 11.6146 146.136 12.601 145.212 13.1352L134.402 19.3732C133.478 19.9074 132.338 19.9074 131.413 19.3732L120.604 13.1352C119.679 12.601 119.109 11.616 119.109 10.5476V-1.92702V-1.92844Z" fill="white"/>
<g opacity="0.8">
<path d="M89.3324 -1.92844C89.3324 -2.99543 89.9022 -3.98186 90.8269 -4.51607L101.635 -10.7527C102.56 -11.2869 103.699 -11.2869 104.624 -10.7527L115.433 -4.51465C116.358 -3.98045 116.928 -2.99543 116.928 -1.92702V10.5476C116.928 11.6146 116.358 12.601 115.433 13.1352L104.624 19.3732C103.699 19.9074 102.56 19.9074 101.635 19.3732L90.8255 13.1352C89.9008 12.601 89.331 11.616 89.331 10.5476V-1.92702L89.3324 -1.92844Z" fill="white"/>
</g>
<g opacity="0.8">
<path d="M59.5554 -1.92844C59.5554 -2.99543 60.1252 -3.98186 61.0499 -4.51607L71.8579 -10.7527C72.7826 -11.2869 73.9222 -11.2869 74.8469 -10.7527L85.6563 -4.51465C86.5809 -3.98045 87.1508 -2.99543 87.1508 -1.92702V10.5476C87.1508 11.6146 86.5809 12.601 85.6563 13.1352L74.8469 19.3732C73.9222 19.9074 72.7826 19.9074 71.8579 19.3732L61.0485 13.1352C60.1238 12.601 59.554 11.616 59.554 10.5476V-1.92702L59.5554 -1.92844Z" fill="white"/>
</g>
<path opacity="0.8" d="M29.777 -1.92844C29.777 -2.99543 30.3468 -3.98186 31.2715 -4.51607L42.0809 -10.7527C43.0056 -11.2869 44.1452 -11.2869 45.0699 -10.7527L55.8793 -4.51465C56.804 -3.98045 57.3738 -2.99543 57.3738 -1.92702V10.5476C57.3738 11.6146 56.804 12.601 55.8793 13.1352L45.0699 19.3732C44.1452 19.9074 43.0056 19.9074 42.0809 19.3732L31.2715 13.1352C30.3468 12.601 29.777 11.616 29.777 10.5476V-1.92702V-1.92844Z" fill="white"/>
<g opacity="0.8">
<path d="M6.29425e-05 -1.92824C6.29425e-05 -2.99523 0.56986 -3.98167 1.49456 -4.51587L12.3039 -10.7539C13.2286 -11.2881 14.3682 -11.2881 15.2929 -10.7539L26.1023 -4.51587C27.027 -3.98167 27.5968 -2.99665 27.5968 -1.92824V10.5464C27.5968 11.6134 27.027 12.5998 26.1023 13.134L15.2929 19.372C14.3682 19.9062 13.2286 19.9062 12.3039 19.372L1.49456 13.134C0.56986 12.5998 6.29425e-05 11.6148 6.29425e-05 10.5464V-1.92824Z" fill="white"/>
</g>
<path d="M133.998 24.1487C133.998 23.0817 134.568 22.0952 135.492 21.561L146.302 15.323C147.226 14.7888 148.366 14.7888 149.291 15.323L160.099 21.561C161.023 22.0952 161.593 23.0803 161.593 24.1487V36.6233C161.593 37.6903 161.023 38.6767 160.099 39.2109L149.289 45.4489C148.365 45.9831 147.225 45.9831 146.3 45.4489L135.491 39.2109C134.566 38.6767 133.997 37.6917 133.997 36.6233V24.1487H133.998Z" fill="white"/>
<g opacity="0.8">
<path d="M104.221 24.1487C104.221 23.0817 104.791 22.0952 105.715 21.561L116.525 15.323C117.45 14.7888 118.589 14.7888 119.514 15.323L130.323 21.561C131.248 22.0952 131.818 23.0803 131.818 24.1487V36.6233C131.818 37.6903 131.248 38.6767 130.323 39.2109L119.514 45.4489C118.589 45.9831 117.45 45.9831 116.525 45.4489L105.715 39.2109C104.791 38.6767 104.221 37.6917 104.221 36.6233V24.1487Z" fill="white"/>
</g>
<g opacity="0.6">
<path d="M74.4439 24.1487C74.4439 23.0817 75.0137 22.0952 75.9384 21.561L86.7478 15.323C87.6725 14.7888 88.8121 14.7888 89.7368 15.323L100.546 21.561C101.471 22.0952 102.041 23.0803 102.041 24.1487V36.6233C102.041 37.6903 101.471 38.6767 100.546 39.2109L89.7368 45.4489C88.8121 45.9831 87.6725 45.9831 86.7478 45.4489L75.9384 39.2109C75.0137 38.6767 74.4439 37.6917 74.4439 36.6233V24.1487Z" fill="white"/>
</g>
<g opacity="0.6">
<path d="M44.6655 24.1487C44.6655 23.0817 45.2353 22.0952 46.16 21.561L56.9694 15.323C57.8941 14.7888 59.0337 14.7888 59.9584 15.323L70.7678 21.561C71.6925 22.0952 72.2623 23.0803 72.2623 24.1487V36.6233C72.2623 37.6903 71.6925 38.6767 70.7678 39.2109L59.9584 45.4489C59.0337 45.9831 57.8941 45.9831 56.9694 45.4489L46.16 39.2109C45.2353 38.6767 44.6655 37.6917 44.6655 36.6233V24.1487Z" fill="white"/>
</g>
<g opacity="0.6">
<path d="M14.8885 24.1487C14.8885 23.0817 15.4583 22.0952 16.383 21.561L27.1924 15.323C28.1171 14.7888 29.2567 14.7888 30.1814 15.323L40.9907 21.561C41.9154 22.0952 42.4852 23.0803 42.4852 24.1487V36.6233C42.4852 37.6903 41.9154 38.6767 40.9907 39.2109L30.1814 45.4489C29.2567 45.9831 28.1171 45.9831 27.1924 45.4489L16.383 39.2109C15.4583 38.6767 14.8885 37.6917 14.8885 36.6233V24.1487Z" fill="white"/>
</g>
<path opacity="0.8" d="M119.109 50.2243C119.109 49.1574 119.679 48.1709 120.604 47.6367L131.413 41.3987C132.338 40.8645 133.478 40.8645 134.402 41.3987L145.212 47.6367C146.136 48.1709 146.706 49.1559 146.706 50.2243V62.699C146.706 63.766 146.136 64.7524 145.212 65.2866L134.402 71.5246C133.478 72.0588 132.338 72.0588 131.413 71.5246L120.604 65.2866C119.679 64.7524 119.109 63.7674 119.109 62.699V50.2243Z" fill="white"/>
<g opacity="0.6">
<path d="M89.3325 50.2243C89.3325 49.1574 89.9023 48.1709 90.827 47.6367L101.636 41.3987C102.561 40.8645 103.701 40.8645 104.625 41.3987L115.435 47.6367C116.359 48.1709 116.929 49.1559 116.929 50.2243V62.699C116.929 63.766 116.359 64.7524 115.435 65.2866L104.625 71.5246C103.701 72.0588 102.561 72.0588 101.636 71.5246L90.827 65.2866C89.9023 64.7524 89.3325 63.7674 89.3325 62.699V50.2243Z" fill="white"/>
</g>
<g opacity="0.4">
<path d="M59.5554 50.2243C59.5554 49.1574 60.1252 48.1709 61.0499 47.6367L71.8593 41.3987C72.784 40.8645 73.9236 40.8645 74.8483 41.3987L85.6577 47.6367C86.5824 48.1709 87.1522 49.1559 87.1522 50.2243V62.699C87.1522 63.766 86.5824 64.7524 85.6577 65.2866L74.8483 71.5246C73.9236 72.0588 72.784 72.0588 71.8593 71.5246L61.0499 65.2866C60.1252 64.7524 59.5554 63.7674 59.5554 62.699V50.2243Z" fill="white"/>
</g>
<g opacity="0.4">
<path d="M29.777 50.2243C29.777 49.1574 30.3468 48.1709 31.2715 47.6367L42.0809 41.3987C43.0056 40.8645 44.1452 40.8645 45.0699 41.3987L55.8793 47.6367C56.804 48.1709 57.3738 49.1559 57.3738 50.2243V62.699C57.3738 63.766 56.804 64.7524 55.8793 65.2866L45.0699 71.5246C44.1452 72.0588 43.0056 72.0588 42.0809 71.5246L31.2715 65.2866C30.3468 64.7524 29.777 63.7674 29.777 62.699V50.2243Z" fill="white"/>
</g>
<g opacity="0.4">
<path d="M74.4439 76.2998C74.4439 75.2328 75.0137 74.2464 75.9384 73.7122L86.7478 67.4741C87.6725 66.9399 88.8121 66.9399 89.7368 67.4741L100.546 73.7122C101.471 74.2464 102.041 75.2314 102.041 76.2998V88.7744C102.041 89.8414 101.471 90.8278 100.546 91.362L89.7368 97.6001C88.8121 98.1343 87.6725 98.1343 86.7478 97.6001L75.9384 91.362C75.0137 90.8278 74.4439 89.8428 74.4439 88.7744V76.2998Z" fill="white"/>
</g>
<g opacity="0.2">
<path d="M44.6655 76.2998C44.6655 75.2328 45.2353 74.2464 46.16 73.7122L56.9694 67.4741C57.8941 66.9399 59.0337 66.9399 59.9584 67.4741L70.7678 73.7122C71.6925 74.2464 72.2623 75.2314 72.2623 76.2998V88.7744C72.2623 89.8414 71.6925 90.8278 70.7678 91.362L59.9584 97.6001C59.0337 98.1343 57.8941 98.1343 56.9694 97.6001L46.16 91.362C45.2353 90.8278 44.6655 89.8428 44.6655 88.7744V76.2998Z" fill="white"/>
</g>
</g>
<defs>
<clipPath id="clip0_67_301">
<rect width="142.136" height="98" fill="white" transform="matrix(-1 0 0 1 142.136 0)"/>
</clipPath>
</defs>
</svg>
