<svg width="407" height="281" viewBox="0 0 407 281" fill="none" xmlns="http://www.w3.org/2000/svg">
<g clip-path="url(#clip0_57_40)">
<path d="M341.065 286.529C341.065 289.589 342.697 292.417 345.345 293.949L376.297 311.831C378.945 313.363 382.208 313.363 384.856 311.831L415.808 293.945C418.456 292.413 420.088 289.589 420.088 286.525V250.756C420.088 247.697 418.456 244.868 415.808 243.337L384.856 225.45C382.208 223.918 378.945 223.918 376.297 225.45L345.345 243.337C342.697 244.868 341.065 247.693 341.065 250.756V286.525V286.529Z" fill="#F6F6F6"/>
<g opacity="0.8">
<path d="M255.8 286.529C255.8 289.589 257.432 292.417 260.079 293.949L291.028 311.831C293.675 313.363 296.939 313.363 299.587 311.831L330.539 293.945C333.187 292.413 334.818 289.589 334.818 286.525V250.756C334.818 247.697 333.187 244.868 330.539 243.337L299.587 225.45C296.939 223.918 293.675 223.918 291.028 225.45L260.075 243.337C257.428 244.868 255.796 247.693 255.796 250.756V286.525L255.8 286.529Z" fill="#F6F6F6"/>
</g>
<g opacity="0.8">
<path d="M170.535 286.529C170.535 289.589 172.166 292.417 174.814 293.949L205.762 311.831C208.41 313.363 211.673 313.363 214.321 311.831L245.273 293.945C247.921 292.413 249.553 289.589 249.553 286.525V250.756C249.553 247.697 247.921 244.868 245.273 243.337L214.321 225.45C211.673 223.918 208.41 223.918 205.762 225.45L174.81 243.337C172.162 244.868 170.531 247.693 170.531 250.756V286.525L170.535 286.529Z" fill="#F6F6F6"/>
</g>
<path opacity="0.8" d="M85.2653 286.529C85.2653 289.589 86.8969 292.417 89.5448 293.949L120.497 311.831C123.145 313.363 126.408 313.363 129.056 311.831L160.008 293.945C162.656 292.413 164.288 289.589 164.288 286.525V250.756C164.288 247.697 162.656 244.868 160.008 243.337L129.056 225.45C126.408 223.918 123.145 223.918 120.497 225.45L89.5448 243.337C86.8969 244.868 85.2653 247.693 85.2653 250.756V286.525V286.529Z" fill="#F6F6F6"/>
<g opacity="0.8">
<path d="M3.8147e-05 286.529C3.8147e-05 289.589 1.63164 292.417 4.27948 293.949L35.2317 311.835C37.8795 313.367 41.1428 313.367 43.7906 311.835L74.7428 293.949C77.3907 292.417 79.0223 289.593 79.0223 286.529V250.76C79.0223 247.701 77.3907 244.872 74.7428 243.341L43.7906 225.454C41.1428 223.922 37.8795 223.922 35.2317 225.454L4.27948 243.341C1.63164 244.872 3.8147e-05 247.697 3.8147e-05 250.76V286.529Z" fill="#F6F6F6"/>
</g>
<path d="M383.698 211.758C383.698 214.817 385.33 217.645 387.977 219.177L418.93 237.064C421.577 238.595 424.841 238.595 427.489 237.064L458.437 219.177C461.085 217.645 462.716 214.821 462.716 211.758V175.988C462.716 172.929 461.085 170.101 458.437 168.569L427.485 150.682C424.837 149.151 421.573 149.151 418.926 150.682L387.973 168.569C385.326 170.101 383.694 172.925 383.694 175.988V211.758H383.698Z" fill="#F6F6F6"/>
<g opacity="0.8">
<path d="M298.433 211.758C298.433 214.817 300.064 217.645 302.712 219.177L333.664 237.064C336.312 238.595 339.575 238.595 342.223 237.064L373.175 219.177C375.823 217.645 377.455 214.821 377.455 211.758V175.988C377.455 172.929 375.823 170.101 373.175 168.569L342.223 150.682C339.575 149.151 336.312 149.151 333.664 150.682L302.712 168.569C300.064 170.101 298.433 172.925 298.433 175.988V211.758Z" fill="#F6F6F6"/>
</g>
<g opacity="0.6">
<path d="M213.167 211.758C213.167 214.817 214.799 217.645 217.447 219.177L248.399 237.064C251.047 238.595 254.31 238.595 256.958 237.064L287.91 219.177C290.558 217.645 292.19 214.821 292.19 211.758V175.988C292.19 172.929 290.558 170.101 287.91 168.569L256.958 150.682C254.31 149.151 251.047 149.151 248.399 150.682L217.447 168.569C214.799 170.101 213.167 172.925 213.167 175.988V211.758Z" fill="#F6F6F6"/>
</g>
<g opacity="0.6">
<path d="M127.898 211.758C127.898 214.817 129.53 217.645 132.177 219.177L163.13 237.064C165.777 238.595 169.041 238.595 171.689 237.064L202.641 219.177C205.289 217.645 206.92 214.821 206.92 211.758V175.988C206.92 172.929 205.289 170.101 202.641 168.569L171.689 150.682C169.041 149.151 165.777 149.151 163.13 150.682L132.177 168.569C129.53 170.101 127.898 172.925 127.898 175.988V211.758Z" fill="#F6F6F6"/>
</g>
<g opacity="0.6">
<path d="M42.6327 211.758C42.6327 214.817 44.2643 217.645 46.9121 219.177L77.8643 237.064C80.5122 238.595 83.7754 238.595 86.4233 237.064L117.375 219.177C120.023 217.645 121.655 214.821 121.655 211.758V175.988C121.655 172.929 120.023 170.101 117.375 168.569L86.4233 150.682C83.7754 149.151 80.5122 149.151 77.8643 150.682L46.9121 168.569C44.2643 170.101 42.6327 172.925 42.6327 175.988V211.758Z" fill="#F6F6F6"/>
</g>
<path opacity="0.8" d="M341.065 136.99C341.065 140.049 342.697 142.878 345.345 144.409L376.297 162.296C378.945 163.828 382.208 163.828 384.856 162.296L415.808 144.409C418.456 142.878 420.088 140.053 420.088 136.99V101.221C420.088 98.1612 418.456 95.3328 415.808 93.801L384.856 75.9145C382.208 74.3827 378.945 74.3827 376.297 75.9145L345.345 93.801C342.697 95.3328 341.065 98.1572 341.065 101.221V136.99Z" fill="#F6F6F6"/>
<g opacity="0.6">
<path d="M255.8 136.99C255.8 140.049 257.432 142.878 260.079 144.409L291.032 162.296C293.68 163.828 296.943 163.828 299.591 162.296L330.543 144.409C333.191 142.878 334.822 140.053 334.822 136.99V101.221C334.822 98.1612 333.191 95.3328 330.543 93.801L299.591 75.9145C296.943 74.3827 293.68 74.3827 291.032 75.9145L260.079 93.801C257.432 95.3328 255.8 98.1572 255.8 101.221V136.99Z" fill="#F6F6F6"/>
</g>
<g opacity="0.4">
<path d="M170.535 136.99C170.535 140.049 172.166 142.878 174.814 144.409L205.766 162.296C208.414 163.828 211.677 163.828 214.325 162.296L245.277 144.409C247.925 142.878 249.557 140.053 249.557 136.99V101.221C249.557 98.1612 247.925 95.3328 245.277 93.801L214.325 75.9145C211.677 74.3827 208.414 74.3827 205.766 75.9145L174.814 93.801C172.166 95.3328 170.535 98.1572 170.535 101.221V136.99Z" fill="#F6F6F6"/>
</g>
<g opacity="0.4">
<path d="M85.2653 136.99C85.2653 140.049 86.8969 142.878 89.5448 144.409L120.497 162.296C123.145 163.828 126.408 163.828 129.056 162.296L160.008 144.409C162.656 142.878 164.288 140.053 164.288 136.99V101.221C164.288 98.1612 162.656 95.3328 160.008 93.801L129.056 75.9145C126.408 74.3827 123.145 74.3827 120.497 75.9145L89.5448 93.801C86.8969 95.3328 85.2653 98.1572 85.2653 101.221V136.99Z" fill="#F6F6F6"/>
</g>
<g opacity="0.4">
<path d="M213.167 62.222C213.167 65.2814 214.799 68.1099 217.447 69.6416L248.399 87.5282C251.047 89.0599 254.31 89.0599 256.958 87.5282L287.91 69.6416C290.558 68.1099 292.19 65.2855 292.19 62.222V26.4529C292.19 23.3935 290.558 20.565 287.91 19.0333L256.958 1.14674C254.31 -0.385002 251.047 -0.385002 248.399 1.14674L217.447 19.0333C214.799 20.565 213.167 23.3895 213.167 26.4529V62.222Z" fill="#F6F6F6"/>
</g>
<g opacity="0.2">
<path d="M127.898 62.222C127.898 65.2814 129.53 68.1099 132.177 69.6416L163.13 87.5282C165.777 89.0599 169.041 89.0599 171.689 87.5282L202.641 69.6416C205.289 68.1099 206.92 65.2855 206.92 62.222V26.4529C206.92 23.3935 205.289 20.565 202.641 19.0333L171.689 1.14674C169.041 -0.385002 165.777 -0.385002 163.13 1.14674L132.177 19.0333C129.53 20.565 127.898 23.3895 127.898 26.4529V62.222Z" fill="#F6F6F6"/>
</g>
</g>
<defs>
<clipPath id="clip0_57_40">
<rect width="407" height="281" fill="white" transform="matrix(-1 0 0 -1 407 281)"/>
</clipPath>
</defs>
</svg>
