<svg width="126" height="179" viewBox="0 0 126 179" fill="none" xmlns="http://www.w3.org/2000/svg">
<path fill-rule="evenodd" clip-rule="evenodd" d="M74.9769 176.296C75.8213 176.49 76.5926 176.404 77.9971 175.023C80.8978 172.181 83.0989 163.836 83.3115 163.27C85.0635 156.943 86.3455 150.518 87.2659 144.041C88.6255 134.443 89.1677 124.774 89.4367 115.283C89.6398 105.191 89.2824 95.2213 88.0172 85.5553C86.7323 75.7713 84.6157 66.2811 81.7324 57.1978C79.9972 51.7457 77.9996 46.4262 75.6321 41.3429C70.1926 29.6743 63.1628 19.1517 54.8402 9.59419C54.6139 9.29017 54.1893 9.28294 53.8935 9.57346C53.5977 9.86399 53.54 10.3527 53.7663 10.6567C60.5305 21.2837 65.6213 32.8295 69.7437 44.9077C71.499 50.0721 73.0905 55.3042 74.4735 60.636C76.7633 69.4885 78.408 78.6075 79.5487 87.9327C80.6774 97.1625 81.3902 106.568 81.3553 116.164C81.3995 123.768 81.2293 131.49 80.6343 139.214C80.0432 146.869 79.062 154.508 77.3273 162.03L74.762 175.3C74.7602 175.902 74.7429 176.239 74.9842 176.291L74.9769 176.296Z" fill="#00BF63"/>
<path fill-rule="evenodd" clip-rule="evenodd" d="M87.7514 31.5755C89.9494 32.7605 92.8713 31.2907 93.6135 28.4886C93.6738 28.2612 93.7005 28.0957 93.6799 28.0087C93.5105 27.2982 92.8368 26.6122 91.9449 25.6089C91.1675 24.7318 90.1937 23.8721 89.0606 23.0433C85.9799 20.7763 82.2203 19.0213 81.7944 18.7487C75.338 15.2148 68.2839 9.79579 61.038 6.15058C57.5382 4.3922 53.9838 3.04579 50.4491 2.39938C49.7669 2.28365 48.8759 2.22593 48.0663 2.39382C47.3743 2.53291 46.7232 2.80857 46.1459 3.19932C44.8336 4.08336 43.8877 5.4845 43.5067 7.35888C43.1172 9.25129 43.7368 12.3519 43.903 13.4309C44.6383 18.0676 45.1801 22.7021 45.6968 27.3128C46.1807 31.6638 46.5109 36.0269 46.9494 40.3824C47.615 46.9619 48.4585 53.4105 48.8041 60.2208C48.7601 61.2083 49.4409 61.9674 50.3278 61.9224C51.2149 61.8672 51.969 61.02 52.0114 60.0287C53.1475 51.6116 54.1538 43.4572 54.1207 35.279C54.0924 27.4917 53.0849 19.8597 51.9634 12.1287C53.7339 12.6882 55.5001 13.4363 57.2605 14.2811C64.4903 17.7661 71.5745 22.9798 78.0241 26.3425L87.7487 31.5748L87.7514 31.5755Z" fill="#00BF63"/>
</svg>
