<svg width="41" height="40" viewBox="0 0 41 40" fill="none" xmlns="http://www.w3.org/2000/svg">
<path d="M20.8391 0C9.79493 0 0.758789 9.01606 0.758789 20.1205C0.758789 30.1607 8.10818 38.494 17.7066 40V25.9438H12.6062V20.1205H17.7066V15.6827C17.7066 10.6426 20.6985 7.87148 25.2969 7.87148C27.4857 7.87148 29.7748 8.253 29.7748 8.253V13.2128H27.2447C24.7548 13.2128 23.9716 14.759 23.9716 16.3454V20.1205H29.5539L28.6503 25.9438H23.9716V40C28.7033 39.2526 33.0122 36.8384 36.12 33.1928C39.2278 29.5474 40.9302 24.9109 40.9194 20.1205C40.9194 9.01606 31.8833 0 20.8391 0Z" fill="white"/>
</svg>
