<svg width="41" height="40" viewBox="0 0 41 40" fill="none" xmlns="http://www.w3.org/2000/svg">
<path fill-rule="evenodd" clip-rule="evenodd" d="M40.9194 40H32.9194V26.002C32.9194 22.162 31.2254 20.0195 28.1874 20.0195C24.8814 20.0195 22.9194 22.252 22.9194 26.002V40H14.9194V14H22.9194V16.9238C22.9194 16.9238 25.4294 12.5195 31.0854 12.5195C36.7434 12.5195 40.9194 15.9722 40.9194 23.1162V40ZM5.80344 9.8418C3.10544 9.8418 0.919434 7.63792 0.919434 4.91992C0.919434 2.20392 3.10544 0 5.80344 0C8.49944 0 10.6854 2.20392 10.6854 4.91992C10.6874 7.63792 8.49944 9.8418 5.80344 9.8418ZM0.919434 40H10.9194V14H0.919434V40Z" fill="white"/>
</svg>
