<svg width="185" height="68" viewBox="0 0 185 68" fill="none" xmlns="http://www.w3.org/2000/svg">
<path d="M60.4976 20.4552C60.4976 18.172 59.2487 16.0612 57.222 14.9196L33.525 1.57301C31.4983 0.431394 29.0005 0.431394 26.9726 1.57301L3.27563 14.9207C1.24889 16.0623 0 18.1731 0 20.4563V47.1507C0 49.4339 1.24889 51.5446 3.27563 52.6862L26.9726 66.0329C28.9994 67.1745 31.4971 67.1745 33.525 66.0329L57.222 52.6862C59.2487 51.5446 60.4976 49.4339 60.4976 47.1507V20.4563V20.4552ZM39.3942 36.4845L21.5277 50.9582C20.6689 51.6548 19.4793 50.7001 20.0507 49.7732L26.1172 36.3042C26.3852 35.8714 26.2621 35.3217 25.8366 35.0469L19.6857 32.056C19.1474 31.7077 19.1189 30.9556 19.6287 30.545L36.9136 16.6443C37.7678 15.9577 38.9483 16.8946 38.394 17.8204L34.2082 31.3072C33.931 31.7701 34.0953 32.3509 34.5743 32.599L39.2539 34.9301C39.8584 35.2438 39.9303 36.0494 39.3919 36.4845H39.3942Z" fill="white"/>
<path d="M69.5403 58.1057H70.8235V66.9303H69.5403V58.1057Z" fill="white"/>
<path d="M73.3899 58.1057H74.3586L77.4208 63.1502L80.507 58.1057H81.487L82.0922 66.9303H80.809L80.4579 60.5022L77.4448 65.3199L74.4065 60.5258L74.068 66.9303H72.7848L73.3899 58.1057Z" fill="white"/>
<path d="M84.0513 58.1057H87.9237C89.6788 58.1057 91.0942 59.1434 91.0942 61.2546C91.0942 63.3659 89.6776 64.3912 87.9237 64.3912H85.3333V66.9314H84.0501V58.1068L84.0513 58.1057ZM87.8394 63.1626C88.9403 63.1626 89.7517 62.5068 89.7517 61.2546C89.7517 60.0025 88.9403 59.3343 87.8394 59.3343H85.3345V63.1626H87.8394Z" fill="white"/>
<path d="M92.5347 62.0893C92.5347 59.5255 93.9513 57.9634 96.3707 57.9634C98.7902 57.9634 100.207 59.5255 100.207 62.0893V66.9317H98.9235V64.4509H93.8168V66.9317H92.5336V62.0893H92.5347ZM98.9246 63.21V62.0893C98.9246 60.2768 97.9924 59.1919 96.3707 59.1919C94.749 59.1919 93.8168 60.2768 93.8168 62.0893V63.21H98.9235H98.9246Z" fill="white"/>
<path d="M101.648 62.5182C101.648 59.7994 103.294 57.9622 106.199 57.9622C107.373 57.9622 108.474 58.308 109.236 58.8808L108.607 59.9656C107.832 59.4288 106.985 59.1907 106.199 59.1907C104.129 59.1907 102.992 60.5619 102.992 62.5182C102.992 64.4744 104.129 65.8456 106.199 65.8456C107.142 65.8456 108.087 65.4526 108.789 64.7485L109.576 65.7738C108.74 66.5846 107.566 67.0731 106.199 67.0731C103.33 67.0731 101.648 65.2246 101.648 62.517V62.5182Z" fill="white"/>
<path d="M113.364 59.3343H110.544V58.1057H117.503V59.3343H114.671V66.9314H113.364V59.3343Z" fill="white"/>
<path d="M118.725 58.1057H124.848V59.3343H120.007V61.8026H124.521V63.0312H120.007V65.7028H125.029V66.9314H118.723V58.1068L118.725 58.1057Z" fill="white"/>
<path d="M129.327 58.1057H130.61V65.7028H135.027V66.9314H129.327V58.1068V58.1057Z" fill="white"/>
<path d="M134.797 58.1057H136.261V59.5611L135.535 61.4219H134.894L135.426 59.7285H134.797V58.1068V58.1057Z" fill="white"/>
<path d="M138.077 62.0893C138.077 59.5255 139.493 57.9634 141.913 57.9634C144.332 57.9634 145.749 59.5255 145.749 62.0893V66.9317H144.465V64.4509H139.359V66.9317H138.076V62.0893H138.077ZM144.467 63.21V62.0893C144.467 60.2768 143.534 59.1919 141.913 59.1919C140.291 59.1919 139.359 60.2768 139.359 62.0893V63.21H144.465H144.467Z" fill="white"/>
<path d="M146.5 58.1057H147.891L150.167 63.6994C150.361 64.1879 150.675 65.0346 150.857 65.5478C151.05 65.0234 151.352 64.2238 151.571 63.687L153.811 58.1057H155.202L151.45 66.9303H150.277L146.501 58.1057H146.5Z" fill="white"/>
<path d="M156.387 58.1057H162.51V59.3343H157.669V61.8026H162.183V63.0312H157.669V65.7028H162.692V66.9314H156.386V58.1068L156.387 58.1057Z" fill="white"/>
<path d="M164.229 58.1057H165.136L170.546 61.7667V58.1057H171.829V66.9303H170.546V63.2457L165.511 59.8351V66.9314H164.228V58.1068L164.229 58.1057Z" fill="white"/>
<path d="M173.911 58.1057H175.195V66.9303H173.911V58.1057Z" fill="white"/>
<path d="M182.709 64.5698C183.17 65.3334 183.581 65.7624 184.415 65.9051V67.0146C183.084 66.9427 182.43 66.4306 181.68 65.238L181.039 64.2127H178.558V66.9315H177.274V58.1069H181.147C182.902 58.1069 184.354 59.1569 184.354 61.1604C184.354 62.6158 183.337 63.5692 182.308 63.9151L182.707 64.5709L182.709 64.5698ZM178.559 59.3108V63.0436H181.113C182.239 63.0436 183.012 62.3878 183.012 61.1592C183.012 59.9307 182.166 59.3108 181.149 59.3108H178.559Z" fill="white"/>
<path d="M82.6677 14.5898V10.5133H93.8293V11.6778C93.8293 19.8623 89.5614 24.7148 82.1093 24.7148C74.1649 24.7148 69.5688 19.7657 69.5688 12.3573C69.5688 4.94882 73.9347 -0.000244141 82.2734 -0.000244141C85.3265 -0.000244141 88.7408 0.970029 90.8423 2.84656L88.5118 6.85792C86.6735 5.53166 85.0644 4.94882 82.6028 4.94882C77.9086 4.94882 75.5769 8.02247 75.5769 12.3573C75.5769 16.692 77.7434 19.7657 82.1093 19.7657C85.2935 19.7657 87.4929 18.0834 87.9203 14.5898H82.6677Z" fill="white"/>
<path d="M113.033 16.7573C114.149 18.7304 115.036 19.3458 117.301 19.8309V24.4566C112.935 24.4566 110.67 23.3572 108.536 19.6041L107.19 17.2424H102.889V24.3274H97.1445V0.388428H107.552C113.263 0.388428 117.105 3.33181 117.105 8.86371C117.105 12.0339 115.168 14.4922 112.443 15.7219L113.033 16.7573ZM102.889 5.24091V12.5202H107.255C109.389 12.5202 111.096 11.3557 111.096 8.86484C111.096 6.37402 109.389 5.24203 107.32 5.24203H102.888L102.889 5.24091Z" fill="white"/>
<path d="M120.912 0.388331H138.345V5.33739H126.658V9.80132H137.524V14.5898H126.658V19.3771H138.772V24.3262H120.913V0.387207L120.912 0.388331Z" fill="white"/>
<path d="M142.347 0.388331H159.78V5.33739H148.093V9.80132H158.959V14.5898H148.093V19.3771H160.207V24.3262H142.348V0.387207L142.347 0.388331Z" fill="white"/>
<path d="M163.783 0.163818H167.756L179.181 7.89568V0.163818H184.926V24.1028H179.181V14.3338L169.529 8.08771V24.3274L163.785 24.1028V0.163818H163.783Z" fill="white"/>
<path d="M69.5369 49.3187L72.1341 45.085C74.4658 47.1198 77.4961 47.4478 79.495 47.4478C81.8597 47.4478 83.192 46.4629 83.192 45.1501C83.192 43.5745 80.7611 42.7873 78.8955 42.2617C74.8658 41.1466 70.2697 39.6036 70.2697 34.549C70.2697 30.1187 73.6669 27.2629 79.495 27.2629C82.8922 27.2629 85.5567 27.8862 88.2212 29.6257L86.1561 33.7606C83.6911 32.5467 81.4267 32.1525 79.495 32.1525C77.5633 32.1525 76.1638 32.9071 76.1638 34.0885C76.1638 35.6315 78.295 36.2874 80.2608 36.8455C84.6245 38.0932 89.0873 39.8316 89.0873 44.6897C89.0873 49.2513 85.7561 52.3362 79.495 52.3362C76.3975 52.3362 72.4008 51.778 69.5369 49.3164V49.3187Z" fill="white"/>
<path d="M104.806 37.865L108.67 44.3638C109.869 46.3661 111.101 47.0556 113.332 47.3836V52.1754C108.902 52.1754 106.404 51.0591 104.107 47.2522L101.243 42.4929L98.5782 45.972V51.9452H92.7501V27.6592H98.5782V38.3254L105.406 27.6592H112.666L104.806 37.8661V37.865Z" fill="white"/>
<path d="M116.661 27.6582H122.489V51.9442H116.661V27.6582Z" fill="white"/>
<path d="M127.418 27.6582H133.246V46.9233H143.937V51.9442H127.417V27.6582H127.418Z" fill="white"/>
<path d="M147.066 27.6582H152.894V46.9233H163.585V51.9442H147.065V27.6582H147.066Z" fill="white"/>
<path d="M165.45 49.3187L168.047 45.085C170.379 47.1198 173.409 47.4478 175.408 47.4478C177.772 47.4478 179.105 46.4629 179.105 45.1501C179.105 43.5745 176.674 42.7873 174.808 42.2617C170.779 41.1466 166.182 39.6036 166.182 34.549C166.182 30.1187 169.58 27.2629 175.408 27.2629C178.805 27.2629 181.469 27.8862 184.134 29.6257L182.069 33.7606C179.604 32.5467 177.339 32.1525 175.408 32.1525C173.476 32.1525 172.077 32.9071 172.077 34.0885C172.077 35.6315 174.208 36.2874 176.174 36.8455C180.537 38.0932 185 39.8316 185 44.6897C185 49.2513 181.669 52.3362 175.408 52.3362C172.31 52.3362 168.313 51.778 165.45 49.3164V49.3187Z" fill="white"/>
</svg>
