<svg width="116" height="57" viewBox="0 0 116 57" fill="none" xmlns="http://www.w3.org/2000/svg">
<path d="M33.7979 17.7344C33.8609 17.4033 33.9867 17.1983 34.1519 17.0879C34.7025 16.7253 35.6699 17.3323 36.0553 17.4742C36.5587 17.6635 43.4646 20.3046 43.4646 20.3046L53.3751 1.27263C53.3751 1.27263 49.8671 29.1425 49.7255 29.8127C49.4424 31.153 48.9783 31.4999 47.2951 30.6168C45.0534 29.45 40.3263 27.4081 40.3263 27.4081L30.4158 46.0143C30.4158 46.0143 33.4833 19.4768 33.7979 17.7265" fill="#00BF63"/>
<path d="M68.3903 36.995C67.997 36.9083 67.6116 36.861 66.9745 36.8846C65.6453 36.9319 64.6228 37.4444 64.5126 38.7768L64.3317 41.0395L67.5566 40.9212L67.4543 42.0486L64.2295 42.1669L63.0182 56.4527L61.6496 56.5079L62.8609 42.2221L60.8237 42.3009L60.8788 41.6623L62.9789 40.9922L63.144 38.832C63.3171 36.861 64.5441 35.7099 67.0925 35.6153C67.5172 35.5995 68.115 35.6153 68.5083 35.702L68.3903 36.995Z" fill="#00BF63"/>
<path d="M75.2017 49.16L75.7838 42.3404C75.0129 41.9383 74.3129 41.7412 72.9837 41.7885C70.5375 41.8831 70.0341 43.925 69.8689 45.9591C69.6959 47.9932 69.8375 50.0194 72.2836 49.9248C73.6129 49.8774 74.3601 49.6252 75.2017 49.16ZM76.4838 50.8314L75.6894 50.8629L75.4534 50.0351C74.3129 50.7526 73.2668 51.1625 72.1656 51.202C68.8779 51.3202 68.2014 48.9708 68.4374 46.0143C68.697 43.0578 69.7903 40.6374 73.078 40.5191C74.1635 40.4797 75.2725 40.7872 76.177 41.4731L76.5546 40.598L77.349 40.5665L76.4838 50.8393V50.8314Z" fill="#00BF63"/>
<path d="M91.8058 42.8213C91.9159 41.4889 91.1923 41.1026 90.0282 41.1499C88.7619 41.1972 88.0382 41.4652 87.173 41.9304C87.2281 42.2536 87.236 42.6005 87.2124 42.9947L86.591 50.453L85.1595 50.5082L85.7808 43.0499C85.8988 41.7096 85.1673 41.3312 84.0033 41.3785C82.8156 41.4258 82.1155 41.6544 81.2897 42.096L80.566 50.6816L79.1345 50.7368L79.9997 40.464L80.7941 40.4324L81.0301 41.2603C82.0683 40.5034 83.1538 40.1328 84.0898 40.1013C85.4584 40.0461 86.3944 40.4009 86.8505 41.1656C87.9832 40.3851 89.0922 39.9121 90.1147 39.8727C92.3013 39.7938 93.3946 40.7793 93.2294 42.8292L92.6081 50.2243L91.1766 50.2795L91.7979 42.8213H91.8058Z" fill="#00BF63"/>
<path d="M97.2645 35.7178C97.8387 35.6941 98.3027 36.1278 98.3263 36.7033C98.3499 37.2788 97.9173 37.744 97.3431 37.7598C96.769 37.7834 96.3049 37.3498 96.2813 36.7743C96.2577 36.1987 96.6903 35.7336 97.2645 35.7099M95.6599 48.072L96.36 39.849L97.7443 39.7938L97.0364 48.1824C96.9577 48.8998 97.1701 49.0969 97.8072 49.0733L97.7049 50.248C96.2341 50.3032 95.5183 49.7119 95.6599 48.072Z" fill="#00BF63"/>
<path d="M100.56 47.8828L101.701 34.5273L103.085 34.4721L101.929 47.9932C101.85 48.7106 102.062 48.9077 102.7 48.8841L102.597 50.0588C101.126 50.114 100.411 49.5227 100.552 47.8828" fill="#00BF63"/>
<path d="M104.855 54.5684L104.949 53.3385C105.736 53.575 106.601 53.851 107.969 53.8037C110.707 53.7012 110.856 51.809 111.013 50.3741L111.124 48.9156C110.203 49.5227 109.259 49.8223 108.3 49.8617C105.869 49.9484 104.933 48.8762 105.106 46.9052L105.728 39.51L107.159 39.4548L106.514 46.9131C106.404 48.2455 107.151 48.6318 108.418 48.5845C109.747 48.5372 110.431 48.2849 111.234 47.8276L111.957 39.2814L113.389 39.2262L112.453 50.3189C112.217 52.8655 111.54 54.8838 107.867 55.0178C106.884 55.0572 105.72 54.9311 104.87 54.5763" fill="#00BF63"/>
<path d="M15.786 25.5869C15.3219 30.9322 11.8454 32.8401 6.76431 33.0451C4.02712 33.1555 1.48657 32.7534 0 31.8546L0.471928 26.6985C1.64388 27.3529 4.00353 28.157 6.68565 28.0467C9.2262 27.9442 10.1779 27.2346 10.2723 26.0836C10.3903 24.7906 9.56441 24.4279 7.93626 24.2702C2.80011 23.8603 0.762951 22.6461 1.14049 18.034C1.47871 13.8949 4.23162 11.2065 9.95769 10.9778C12.8915 10.8596 15.0073 11.3405 16.0377 11.8293L15.5343 16.8672C14.2522 16.2759 11.9162 15.8895 9.95769 15.9684C7.83401 16.0551 6.68565 16.6858 6.59127 17.7896C6.49688 19.0274 7.37781 19.327 9.09249 19.4531C13.8668 19.8552 16.1714 20.8249 15.8017 25.579" fill="#00BF63"/>
<path d="M22.2434 39.439C20.0647 39.5258 18.0118 39.3287 16.6196 38.8241L17.0286 34.2671C18.877 34.953 20.34 35.2605 22.1019 35.1344C23.9424 35.0082 24.7525 34.212 24.8862 32.7534L24.957 31.6812C23.8873 32.1463 22.7468 32.4144 21.5985 32.4617C17.5163 32.6273 16.7612 30.5222 16.9893 27.7392L17.7837 18.1444L23.2581 17.9236L22.503 27.0139C22.4479 27.6919 22.7154 28.1255 23.4705 28.094C24.257 28.0624 24.9413 27.755 25.3188 27.5106L26.1133 17.8054L31.5876 17.5846L30.4078 31.6891C30.1325 35.2605 28.8032 39.1868 22.2356 39.4469" fill="#00BF63"/>
<path d="M60.7845 21.6764C61.7598 21.637 62.3654 21.2507 62.4362 20.3519C62.5149 19.4531 61.9643 19.1062 60.989 19.1456C59.7619 19.193 58.7316 20.076 58.6293 21.7631L60.7845 21.6764ZM58.3776 24.5777C58.2046 25.9338 58.9597 26.462 61.3036 26.3674C63.089 26.2964 64.9453 25.8313 66.2982 25.3267L66.0622 29.182C64.3003 29.9546 61.9407 30.3251 60.2339 30.3961C55.0663 30.6011 53.21 28.2911 53.6269 23.198C54.0437 18.105 56.4899 15.6215 61.2957 15.4323C65.8498 15.251 67.533 16.7568 67.2892 19.7133C67.0454 22.6698 65.0947 24.3175 60.5406 24.4989L58.3855 24.5856L58.3776 24.5777Z" fill="#00BF63"/>
<path d="M78.3558 19.4925C78.2457 19.4689 77.7109 19.4058 77.0108 19.4373C75.8074 19.4847 74.6276 19.9262 74.1635 20.2494L73.4085 29.4264L67.9341 29.6471L69.0824 15.5742L72.7163 15.4323L73.141 16.3153C74.0377 15.5505 75.6344 14.8725 77.3097 14.8016C78.0098 14.77 78.5131 14.841 78.8042 14.9671L78.3716 19.5004L78.3558 19.4925Z" fill="#00BF63"/>
<path d="M87.7943 18.9801C87.7078 18.9249 87.11 18.5859 86.3549 18.6174C84.8998 18.6726 84.4672 19.6187 84.247 21.9839C84.0582 24.3491 84.3492 25.2952 85.8043 25.2321C86.5594 25.2006 87.2122 24.8142 87.3224 24.7512L87.7943 18.9801ZM93.6069 14.5966L92.5293 27.6288C92.2068 31.5393 91.4989 36.1672 84.2312 36.4589C82.0525 36.5456 79.9996 36.317 78.6074 35.8124L79.0164 31.2791C80.6682 31.9177 82.0446 32.2252 83.5863 32.1621C85.7965 32.0754 86.7718 31.3895 86.9055 29.7575L86.9999 28.6064C86.0954 29.0637 85.0414 29.4106 83.7829 29.4658C80.1491 29.6077 78.4501 27.6052 78.8748 22.1968C79.331 16.7962 81.3761 14.636 85.0099 14.4941C86.8819 14.4231 88.1876 14.9592 89.3123 15.724L89.973 14.7464L93.6069 14.6045V14.5966Z" fill="#00BF63"/>
<path d="M98.4049 7.16985C100.112 7.0989 101.535 8.41552 101.598 10.1263C101.669 11.8372 100.356 13.2642 98.6488 13.3273C96.942 13.3982 95.5183 12.0737 95.4554 10.3708C95.3846 8.65993 96.706 7.23292 98.4049 7.16985ZM100.843 28.3857C100.843 28.3857 99.8443 28.6537 98.7825 28.6932C96.1554 28.7956 94.3464 27.6919 94.5981 24.8458L95.4475 14.5177L100.922 14.297L100.159 23.332C100.127 23.8918 100.411 24.1599 101.197 24.1283L100.835 28.3778L100.843 28.3857Z" fill="#00BF63"/>
<path d="M109.479 19.7369C110.455 19.6975 111.06 19.3112 111.131 18.4124C111.21 17.5137 110.659 17.1668 109.684 17.2062C108.457 17.2535 107.427 18.1365 107.324 19.8237L109.479 19.7369ZM107.08 22.6383C106.907 23.9943 107.663 24.5225 110.006 24.4279C111.792 24.357 113.648 23.8918 115.001 23.3872L114.765 27.2425C113.003 28.0151 110.644 28.3857 108.937 28.4566C103.769 28.6616 101.913 26.3516 102.33 21.2586C102.747 16.1655 105.193 13.682 109.999 13.4928C114.553 13.3115 116.236 14.8173 115.992 17.7738C115.748 20.7303 113.798 22.3781 109.244 22.5594L107.088 22.6461L107.08 22.6383Z" fill="#00BF63"/>
<path d="M30.0854 43.381C31.454 37.1211 35.8036 17.1983 36.2284 15.6846C36.2756 15.5269 36.3542 15.3219 36.4879 15.2509C36.5273 15.2273 36.5823 15.2194 36.6453 15.2194C36.9677 15.2194 37.4161 15.519 37.715 15.7161C37.8251 15.7949 37.9273 15.858 38.006 15.8974L45.3366 19.9498L56.4269 2.39215C54.0594 12.799 50.1896 29.7181 50.0323 30.2226C49.757 31.1135 49.5368 31.2318 49.3323 31.2318C49.0648 31.2318 48.6322 31.0189 48.0581 30.609C45.9737 29.111 41.5218 26.3753 41.4747 26.3516L41.1836 26.1782L30.0854 43.3889V43.381Z" fill="white"/>
<path d="M57.2056 0.5L45.2107 19.4847C45.2107 19.4847 38.643 15.8501 38.1632 15.59C37.8644 15.4244 37.1879 14.8725 36.6373 14.8725C36.5272 14.8725 36.4171 14.8962 36.3149 14.9514C36.134 15.046 35.9845 15.251 35.8901 15.5978C35.3789 17.4191 29.3303 45.1865 29.3303 45.1865L41.278 26.6591C41.278 26.6591 45.7377 29.3948 47.8378 30.9007C48.4906 31.3737 48.9547 31.5945 49.3165 31.5945C49.8199 31.5945 50.0952 31.153 50.3469 30.3409C50.5671 29.6471 57.1977 0.515768 57.1977 0.515768M55.6403 4.28432C53.4773 13.753 49.8749 29.5131 49.7019 30.1202C49.4974 30.7903 49.3558 30.877 49.3322 30.8849C49.2457 30.8849 48.9625 30.8297 48.2625 30.3251C46.1703 28.8114 41.8443 26.1624 41.6634 26.052L41.0892 25.6972L40.7195 26.2649L30.8405 41.5835C32.508 33.9439 36.1811 17.151 36.5744 15.7713C36.6137 15.6294 36.6531 15.5663 36.6609 15.5584C36.8812 15.5584 37.3216 15.858 37.534 15.9999C37.652 16.0788 37.7621 16.1497 37.8408 16.197L44.8882 20.0917L45.4545 20.4071L45.8006 19.8552L55.6403 4.28432Z" fill="#00BF63"/>
</svg>
