<svg width="100" height="100" viewBox="0 0 100 100" fill="none" xmlns="http://www.w3.org/2000/svg">
<g clip-path="url(#clip0_101_163)">
<path d="M49 100C76.062 100 98 77.6142 98 50C98 22.3858 76.062 0 49 0C21.938 0 0 22.3858 0 50C0 77.6142 21.938 100 49 100Z" fill="#00BF63"/>
<path d="M39.6362 67.875C32.884 62.64 24.9558 56.49 24.9558 45.835C24.9558 34.07 38.1809 25.725 49.0001 37.035L53.807 41.87C54.5126 42.58 55.6543 42.58 56.355 41.87C57.0606 41.16 57.0606 40.01 56.355 39.305L51.7098 34.63C61.9067 27.12 73.0395 35.035 73.0395 45.835C73.0395 56.635 65.1113 62.64 58.3591 67.875C57.6584 68.42 56.9675 68.955 56.3011 69.48C53.807 71.46 51.4011 73.325 48.9952 73.325C46.5893 73.325 44.1883 71.46 41.6893 69.48C41.0229 68.95 40.332 68.415 39.6313 67.875H39.6362Z" fill="white"/>
</g>
<defs>
<clipPath id="clip0_101_163">
<rect width="98" height="100" fill="white"/>
</clipPath>
</defs>
</svg>
