<svg width="100" height="100" viewBox="0 0 100 100" fill="none" xmlns="http://www.w3.org/2000/svg">
<g clip-path="url(#clip0_101_182)">
<g clip-path="url(#clip1_101_182)">
<path d="M50 100C77.6142 100 100 77.6142 100 50C100 22.3858 77.6142 0 50 0C22.3858 0 0 22.3858 0 50C0 77.6142 22.3858 100 50 100Z" fill="#00BF63"/>
<path d="M63.81 20.92C59.925 20.53 59.535 25.97 50.21 29.855C40.715 33.81 31.295 39.01 31.15 58.745C31.13 60.885 31 64.575 30.98 66.14C30.95 68.38 31.015 70.785 29.99 72.02C29.54 72.565 28.9 73.15 28.18 73.73C27.19 74.525 27.105 76.005 28.005 76.9L28.895 77.79C29.64 78.53 30.81 78.615 31.66 78C34.035 76.27 34.85 76.095 35.475 76.105C37.24 76.145 39.035 76.16 40.835 76.02C52.24 75.11 63.81 69.575 69.635 59C80.125 39.96 67.69 21.31 63.805 20.92H63.81ZM62.825 33.38C62.12 35.745 59.76 39.27 52.375 47.98C48.565 52.475 44.175 60.22 41.035 67.115C40.085 69.205 36.895 67.675 38.035 65.585C39.515 63.38 42.93 53.75 47.875 47.29C52.82 40.825 59.4 35.275 60.42 32.08C60.895 29.895 63.76 30.235 62.825 33.38Z" fill="white"/>
</g>
</g>
<defs>
<clipPath id="clip0_101_182">
<rect width="100" height="100" fill="white"/>
</clipPath>
<clipPath id="clip1_101_182">
<rect width="100" height="100" fill="white"/>
</clipPath>
</defs>
</svg>
