<svg width="138" height="159" viewBox="0 0 138 159" fill="none" xmlns="http://www.w3.org/2000/svg">
<path d="M138 47.3064C138 41.8342 135.151 36.7755 130.528 34.0394L76.4733 2.05204C71.8501 -0.684015 66.1525 -0.684015 61.5267 2.05204L7.47198 34.0421C2.84882 36.7781 0 41.8369 0 47.309V111.286C0 116.759 2.84882 121.817 7.47198 124.553L61.5267 156.541C66.1499 159.277 71.8475 159.277 76.4733 156.541L130.528 124.553C135.151 121.817 138 116.759 138 111.286V47.309V47.3064ZM89.8614 85.7232L49.1064 120.412C47.1473 122.081 44.4338 119.793 45.7372 117.572L59.5755 85.2912C60.1869 84.2538 59.9059 82.9364 58.9355 82.2778L44.9047 75.1096C43.6767 74.2749 43.6117 72.4722 44.7746 71.4882L84.2028 38.1728C86.1515 36.5275 88.8442 38.7728 87.5798 40.9916L78.0317 73.3149C77.3995 74.4243 77.7741 75.8163 78.8668 76.411L89.5414 81.9978C90.9203 82.7498 91.0842 84.6805 89.8562 85.7232H89.8614Z" fill="#00BF63"/>
</svg>
