<svg width="80" height="102" viewBox="0 0 80 102" fill="none" xmlns="http://www.w3.org/2000/svg">
<path fill-rule="evenodd" clip-rule="evenodd" d="M82.4669 25.8907C82.8972 26.2117 83.1894 26.5959 83.2504 27.7211C83.3801 30.0414 81.0999 33.9499 80.9721 34.244C79.2782 37.2456 77.3486 40.0652 75.2469 42.7364C72.1305 46.6929 68.6426 50.298 65.1077 53.716C61.3141 57.3122 57.3314 60.6081 53.0829 63.3813C48.7808 66.1864 44.2411 68.5071 39.5348 70.334C36.708 71.4284 33.8216 72.3562 30.8702 73.032C24.0931 74.5808 17.0865 75.0007 9.90602 74.4911C9.69381 74.4926 9.51213 74.2999 9.49917 74.0631C9.48621 73.8262 9.6497 73.63 9.86191 73.6286C16.7968 73.0503 23.3798 71.3838 29.7593 69.0871C32.484 68.1018 35.1657 67.0176 37.7978 65.8029C42.1653 63.7832 46.3635 61.3744 50.4285 58.6623C54.4518 55.9778 58.3675 53.041 62.0414 49.6942C64.9825 47.0755 67.8789 44.3171 70.5975 41.3624C73.2906 38.4339 75.8136 35.3312 77.9738 31.9229L81.9935 26.1377C82.2244 25.9276 82.3463 25.803 82.4681 25.8957L82.4669 25.8907Z" fill="#00BF63"/>
<path fill-rule="evenodd" clip-rule="evenodd" d="M32.2168 81.9885C33.5985 82.588 34.2647 84.4416 33.5003 85.7554C33.4383 85.8621 33.386 85.9318 33.3438 85.9525C32.9994 86.1212 32.4518 86.0496 31.6903 85.9877C31.0257 85.9346 30.2849 85.7853 29.4889 85.552C27.3194 84.9222 25.0607 83.8027 24.7765 83.7015C20.6977 81.9593 15.6426 80.5966 11.1884 78.5301C9.03782 77.5312 7.02265 76.3642 5.28483 74.9632C4.95288 74.6897 4.55528 74.3001 4.27872 73.8696C4.0406 73.5031 3.8722 73.108 3.77914 72.7069C3.56603 71.7967 3.70604 70.8755 4.26594 70.0497C4.82923 69.2138 6.2821 68.4225 6.76689 68.1245C8.85892 66.8532 10.8686 65.4938 12.8586 64.131C14.7349 62.8434 16.5511 61.4809 18.41 60.1707C21.2195 58.1932 24.0536 56.3428 26.8169 54.138C27.1779 53.775 27.7566 53.8246 28.113 54.248C28.4655 54.675 28.4577 55.3158 28.0945 55.6794C25.3378 59.1232 22.6275 62.4162 19.47 65.2395C16.4648 67.9293 13.1068 70.115 9.66259 72.2826C10.6237 72.9025 11.6554 73.455 12.7219 73.9712C17.1077 76.086 22.0967 77.5337 26.1068 79.3322L32.2154 81.9875L32.2168 81.9885Z" fill="#00BF63"/>
</svg>
