<svg width="160" height="123" viewBox="0 0 160 123" fill="none" xmlns="http://www.w3.org/2000/svg">
<path fill-rule="evenodd" clip-rule="evenodd" d="M-36 6.16701C-35.9561 4.89491 -35.6086 3.84512 -33.5398 2.45775C-29.2785 -0.411683 -18.7949 0.0576356 -18.064 0C-10.0885 0.238776 -2.14891 1.18153 5.73477 2.65536C17.4165 4.84551 28.9185 8.21719 40.125 11.8976C52.0145 15.928 63.5804 20.6953 74.4993 26.6112C85.55 32.6053 95.9897 39.6451 105.707 47.5906C111.537 52.3661 117.129 57.4545 122.325 62.9628C134.25 75.6138 144.322 90.0145 152.849 105.823C153.132 106.272 153.005 106.873 152.569 107.165C152.134 107.458 151.543 107.33 151.259 106.881C140.979 92.8098 129.086 80.7022 116.258 69.7309C110.771 65.05 105.151 60.5709 99.3485 56.3429C89.7115 49.332 79.5554 43.1156 68.9959 37.5208C58.5442 31.9837 47.7531 26.957 36.4987 22.9019C27.6046 19.5879 18.5028 16.525 9.26126 14.059C0.103577 11.6177 -9.16194 9.73219 -18.5313 8.95822L-34.9017 6.89569C-35.6086 6.64045 -36.008 6.52106 -35.992 6.15878L-36 6.16701Z" fill="#00BF63"/>
<path fill-rule="evenodd" clip-rule="evenodd" d="M137.654 50.0906C136.971 46.4883 139.631 43.0019 143.152 43.1551C143.438 43.1675 143.64 43.2006 143.735 43.2669C144.513 43.8093 145.101 45.0515 145.99 46.7367C146.768 48.2066 147.463 49.9457 148.07 51.8959C149.738 57.2042 150.587 63.2496 150.77 63.9659C152.838 74.57 156.923 86.8222 158.868 98.5857C159.805 104.267 160.242 109.848 159.865 115.103C159.781 116.113 159.563 117.392 159.106 118.461C158.721 119.376 158.189 120.175 157.546 120.821C156.089 122.291 154.144 123.024 151.826 122.759C149.484 122.498 146.05 120.299 144.839 119.604C139.642 116.585 134.386 113.84 129.15 111.14C124.208 108.598 119.202 106.267 114.24 103.786C106.745 100.035 99.46 96.0889 91.5918 92.6894C90.4207 92.3292 89.7498 91.0456 90.0872 89.8158C90.4366 88.5902 91.6712 87.8904 92.8463 88.2548C103.073 90.2547 112.949 92.3251 122.521 95.8694C131.635 99.2399 140.254 103.923 148.952 108.809C148.864 106.076 148.555 103.269 148.13 100.428C146.367 88.7558 142.533 76.5493 140.663 66.0279L137.654 50.0948V50.0906Z" fill="#00BF63"/>
</svg>
