<svg width="207" height="303" viewBox="0 0 207 303" fill="none" xmlns="http://www.w3.org/2000/svg">
<path fill-rule="evenodd" clip-rule="evenodd" d="M10.3951 266.267C9.07698 265.803 8.10416 265 7.41311 261.762C5.97744 255.09 10.3426 241.066 10.5521 240.06C13.7489 229.354 17.6709 218.92 22.1292 208.731C28.7421 193.634 36.5279 179.156 44.5284 165.176C53.1482 150.384 62.4216 136.263 72.6607 123.382C83.0306 110.348 94.2716 98.4719 106.196 87.8609C113.359 81.4959 120.762 75.5543 128.459 70.2806C146.135 58.1793 164.962 49.1393 184.694 42.6362C185.27 42.3954 185.853 42.7592 185.999 43.4406C186.144 44.122 185.792 44.8805 185.217 45.1212C166.659 54.5467 149.565 66.7774 133.318 80.6327C126.381 86.5634 119.606 92.7365 113.028 99.2378C102.113 110.038 91.8408 121.792 82.0713 134.289C72.4021 146.659 63.1429 159.65 54.7317 173.576C47.9698 184.546 41.3945 195.877 35.3938 207.587C29.45 219.192 24.0493 231.118 19.7763 243.538L11.5652 265.014C11.0363 265.888 10.7636 266.39 10.3894 266.254L10.3951 266.267Z" fill="#00BF63"/>
<path fill-rule="evenodd" clip-rule="evenodd" d="M120.618 45.4656C116.587 45.2439 113.913 40.5402 115.374 35.8286C115.493 35.4461 115.602 35.183 115.707 35.0752C116.564 34.1957 118.084 33.7962 120.18 33.1296C122.009 32.5449 124.09 32.1584 126.36 31.957C132.544 31.39 139.199 32.1627 140.018 32.1434C151.905 32.7173 166.266 31.0886 179.324 32.1973C185.629 32.7362 191.646 33.9196 197.018 36.0993C198.047 36.5331 199.308 37.2349 200.26 38.1915C201.078 39.0029 201.72 39.976 202.16 41.0507C203.163 43.4874 203.213 46.35 202.079 49.4C200.94 52.4834 197.365 56.4269 196.188 57.8427C191.102 63.9085 186.281 70.1416 181.515 76.3623C177.022 82.236 172.728 88.2626 168.293 94.1828C161.589 103.123 154.759 111.717 148.286 121.273C147.476 122.742 145.881 123.241 144.716 122.394C143.56 121.532 143.282 119.641 144.098 118.168C149.973 104.979 155.794 92.2846 163.048 80.4718C169.95 69.221 178.046 59.0581 186.385 48.8523C183.486 48.1019 180.427 47.6283 177.29 47.2999C164.395 45.9733 150.174 47.2783 138.447 46.4624L120.623 45.4669L120.618 45.4656Z" fill="#00BF63"/>
</svg>
