<svg width="41" height="40" viewBox="0 0 41 40" fill="none" xmlns="http://www.w3.org/2000/svg">
<path fill-rule="evenodd" clip-rule="evenodd" d="M20.7587 30.909C26.7836 30.909 31.6678 26.0248 31.6678 19.9999C31.6678 13.975 26.7836 9.09082 20.7587 9.09082C14.7338 9.09082 9.84961 13.975 9.84961 19.9999C9.84961 26.0248 14.7338 30.909 20.7587 30.909ZM20.7587 27.2726C24.7752 27.2726 28.0314 24.0165 28.0314 19.9999C28.0314 15.9833 24.7752 12.7272 20.7587 12.7272C16.7421 12.7272 13.486 15.9833 13.486 19.9999C13.486 24.0165 16.7421 27.2726 20.7587 27.2726Z" fill="white"/>
<path d="M31.6678 7.27295C30.6636 7.27295 29.8496 8.08699 29.8496 9.09113C29.8496 10.0953 30.6636 10.9093 31.6678 10.9093C32.672 10.9093 33.486 10.0953 33.486 9.09113C33.486 8.08699 32.672 7.27295 31.6678 7.27295Z" fill="white"/>
<path fill-rule="evenodd" clip-rule="evenodd" d="M1.94781 5.95647C0.758789 8.29006 0.758789 11.3449 0.758789 17.4545V22.5455C0.758789 28.6551 0.758789 31.71 1.94781 34.0435C2.9937 36.0962 4.66257 37.7651 6.71526 38.8109C9.04884 40 12.1037 40 18.2133 40H23.3042C29.4139 40 32.4688 40 34.8022 38.8109C36.855 37.7651 38.5239 36.0962 39.5697 34.0435C40.7588 31.71 40.7588 28.6551 40.7588 22.5455V17.4545C40.7588 11.3449 40.7588 8.29006 39.5697 5.95647C38.5239 3.90378 36.855 2.23491 34.8022 1.18902C32.4688 0 29.4139 0 23.3042 0H18.2133C12.1037 0 9.04884 0 6.71526 1.18902C4.66257 2.23491 2.9937 3.90378 1.94781 5.95647ZM23.3042 3.63636H18.2133C15.0985 3.63636 12.9811 3.6392 11.3444 3.77291C9.75014 3.90316 8.93486 4.13925 8.36613 4.42904C6.99768 5.12631 5.8851 6.23889 5.18783 7.60735C4.89804 8.17607 4.66195 8.99135 4.5317 10.5856C4.39799 12.2223 4.39515 14.3397 4.39515 17.4545V22.5455C4.39515 25.6604 4.39799 27.7776 4.5317 29.4144C4.66195 31.0087 4.89804 31.824 5.18783 32.3927C5.8851 33.7611 6.99768 34.8736 8.36613 35.5709C8.93486 35.8607 9.75014 36.0969 11.3444 36.2271C12.9811 36.3607 15.0985 36.3636 18.2133 36.3636H23.3042C26.4192 36.3636 28.5364 36.3607 30.1732 36.2271C31.7675 36.0969 32.5828 35.8607 33.1515 35.5709C34.5199 34.8736 35.6324 33.7611 36.3297 32.3927C36.6195 31.824 36.8557 31.0087 36.9859 29.4144C37.1195 27.7776 37.1224 25.6604 37.1224 22.5455V17.4545C37.1224 14.3397 37.1195 12.2223 36.9859 10.5856C36.8557 8.99135 36.6195 8.17607 36.3297 7.60735C35.6324 6.23889 34.5199 5.12631 33.1515 4.42904C32.5828 4.13925 31.7675 3.90316 30.1732 3.77291C28.5364 3.6392 26.4192 3.63636 23.3042 3.63636Z" fill="white"/>
</svg>
