<svg width="35" height="53" viewBox="0 0 35 53" fill="none" xmlns="http://www.w3.org/2000/svg">
<g clip-path="url(#clip0_174_43)">
<path d="M17.9304 69C42.7832 69 62.9304 48.8528 62.9304 24C62.9304 -0.852814 42.7832 -21 17.9304 -21C-6.92239 -21 -27.0696 -0.852814 -27.0696 24C-27.0696 48.8528 -6.92239 69 17.9304 69Z" fill="#00BF63"/>
<path d="M17.9305 0.0600586C8.67404 0.0690586 1.18154 7.57956 1.18604 16.8361C1.19054 22.1056 3.67004 27.0511 7.85954 30.2056C8.16554 30.4351 8.35454 30.7906 8.35454 31.1731V34.7776C8.35454 36.7621 9.96103 38.3686 11.9455 38.3686H23.9155C25.9 38.3686 27.5065 36.7621 27.5065 34.7776V31.1731C27.5065 30.7906 27.6955 30.4351 28.0015 30.2056C35.1745 24.8056 36.8395 14.6536 31.66 7.22856C28.528 2.74206 23.407 0.0690586 17.935 0.0600586H17.9305ZM10.7485 44.3491C10.7485 46.3336 12.355 47.9401 14.3395 47.9401H21.5215C23.506 47.9401 25.1125 46.3336 25.1125 44.3491C25.1125 43.6876 24.577 43.1521 23.9155 43.1521H11.9455C11.284 43.1521 10.7485 43.6876 10.7485 44.3491Z" fill="white"/>
</g>
<defs>
<clipPath id="clip0_174_43">
<rect width="34" height="52" fill="white" transform="translate(0.976807 0.5)"/>
</clipPath>
</defs>
</svg>
