<svg width="26" height="40" viewBox="0 0 26 40" fill="none" xmlns="http://www.w3.org/2000/svg">
<g clip-path="url(#clip0_146_463)">
<path d="M0 40C1.33872 33.8911 5.59338 14.4489 6.00885 12.9717C6.05501 12.8179 6.13195 12.6178 6.26274 12.5486C6.30121 12.5255 6.35507 12.5178 6.41662 12.5178C6.73206 12.5178 7.17061 12.8102 7.46297 13.0025C7.57069 13.0794 7.67071 13.141 7.74764 13.1795L14.9183 17.1341L25.7588 0C23.443 10.1558 19.6576 26.6667 19.5038 27.1591C19.2345 28.0285 19.019 28.1439 18.819 28.1439C18.5574 28.1439 18.1343 27.9361 17.5726 27.5361C15.5338 26.0742 11.1791 23.4045 11.1329 23.3814L10.8482 23.2122L0 40Z" fill="white"/>
</g>
<defs>
<clipPath id="clip0_146_463">
<rect width="25.7588" height="40" fill="white"/>
</clipPath>
</defs>
</svg>
